<svg width="102" height="48" viewBox="0 0 102 48" fill="none" xmlns="http://www.w3.org/2000/svg">
<rect y="4" width="40" height="40" rx="4" fill="#42B2FC"/>
<path d="M9.336 31V28.984C10.44 29.144 11.264 28.84 11.808 28.072C12.368 27.288 12.648 25.84 12.648 23.728V14.2H23.736V31H21.504V16.312H14.88V23.728C14.88 25.232 14.736 26.496 14.448 27.52C14.176 28.528 13.776 29.288 13.248 29.8C12.736 30.312 12.16 30.664 11.52 30.856C10.896 31.032 10.168 31.08 9.336 31ZM37.2589 29.488C36.0269 30.704 34.5309 31.312 32.7709 31.312C31.0109 31.312 29.5149 30.704 28.2829 29.488C27.0669 28.272 26.4589 26.776 26.4589 25C26.4589 23.224 27.0669 21.728 28.2829 20.512C29.5149 19.296 31.0109 18.688 32.7709 18.688C34.5309 18.688 36.0269 19.296 37.2589 20.512C38.4909 21.728 39.1069 23.224 39.1069 25C39.1069 26.776 38.4909 28.272 37.2589 29.488ZM32.7709 29.272C33.9709 29.272 34.9789 28.864 35.7949 28.048C36.6109 27.232 37.0189 26.216 37.0189 25C37.0189 23.784 36.6109 22.768 35.7949 21.952C34.9789 21.136 33.9709 20.728 32.7709 20.728C31.5869 20.728 30.5869 21.136 29.7709 21.952C28.9549 22.768 28.5469 23.784 28.5469 25C28.5469 26.216 28.9549 27.232 29.7709 28.048C30.5869 28.864 31.5869 29.272 32.7709 29.272Z" fill="white"/>
<path d="M49.4404 19V21.016H43.6564V31H41.5684V19H49.4404ZM60.9308 29.488C59.6988 30.704 58.2028 31.312 56.4428 31.312C54.6828 31.312 53.1868 30.704 51.9548 29.488C50.7388 28.272 50.1308 26.776 50.1308 25C50.1308 23.224 50.7388 21.728 51.9548 20.512C53.1868 19.296 54.6828 18.688 56.4428 18.688C58.2028 18.688 59.6988 19.296 60.9308 20.512C62.1628 21.728 62.7787 23.224 62.7787 25C62.7787 26.776 62.1628 28.272 60.9308 29.488ZM56.4428 29.272C57.6428 29.272 58.6508 28.864 59.4668 28.048C60.2828 27.232 60.6908 26.216 60.6908 25C60.6908 23.784 60.2828 22.768 59.4668 21.952C58.6508 21.136 57.6428 20.728 56.4428 20.728C55.2588 20.728 54.2588 21.136 53.4428 21.952C52.6268 22.768 52.2188 23.784 52.2188 25C52.2188 26.216 52.6268 27.232 53.4428 28.048C54.2588 28.864 55.2588 29.272 56.4428 29.272ZM73.6995 19V21.016H69.6195V31H67.5315V21.016H63.4275V19H73.6995ZM84.2413 19H85.9213V31H83.8573V22.576L77.2093 31H75.5293V19H77.5933V27.424L84.2413 19ZM99.4916 19V31H97.4036V20.992H91.1876V31H89.0996V19H99.4916Z" fill="#282828"/>
</svg>
